<svg xmlns="http://www.w3.org/2000/svg" viewBox="0 0 860 300" role="img" aria-label="Cumulative tokens saved, live sessions">
<text x="30" y="34" font-size="20" fill="#0b0b0b" text-anchor="start" font-weight="600" font-family="system-ui, -apple-system, sans-serif">Tokens saved — live sessions</text>
<text x="30" y="58" font-size="13" fill="#52514e" text-anchor="start" font-weight="normal" font-family="system-ui, -apple-system, sans-serif">cumulative, 286 compressions on one machine doing real work (ledger: ~/.context-kernel-savings.log)</text>
<line x1="30" y1="176.0" x2="740" y2="176.0" stroke="#d8d7d2" stroke-width="1"/>
<text x="748" y="180.0" font-size="12" fill="#52514e" text-anchor="start" font-weight="normal" font-family="system-ui, -apple-system, sans-serif">224k</text>
<text x="267.3601636705599" y="286" font-size="12" fill="#52514e" text-anchor="middle" font-weight="normal" font-family="system-ui, -apple-system, sans-serif">Jul 16</text>
<text x="629.0390840108721" y="286" font-size="12" fill="#52514e" text-anchor="middle" font-weight="normal" font-family="system-ui, -apple-system, sans-serif">Jul 17</text>
<path d="M 30.0 254.8 L 31.4 249.6 L 34.2 249.6 L 34.5 247.3 L 34.6 246.9 L 35.1 242.1 L 35.6 241.7 L 35.7 241.4 L 35.9 241.1 L 41.3 240.6 L 46.8 240.4 L 46.8 240.3 L 47.2 239.0 L 47.6 238.6 L 47.6 238.2 L 50.4 237.3 L 50.4 237.2 L 50.4 236.6 L 50.4 235.8 L 50.5 235.1 L 50.6 235.1 L 51.1 235.1 L 51.2 235.1 L 53.4 235.0 L 55.0 234.7 L 55.1 234.5 L 58.8 233.9 L 60.1 233.2 L 72.2 232.3 L 72.3 225.5 L 72.3 223.5 L 72.3 217.9 L 72.4 217.7 L 192.4 217.6 L 192.5 217.6 L 192.6 217.5 L 192.7 216.0 L 192.7 215.9 L 192.8 215.1 L 192.8 215.0 L 193.0 214.2 L 193.9 214.2 L 201.5 214.2 L 209.8 213.6 L 210.7 213.2 L 210.7 212.2 L 210.7 211.5 L 210.8 210.3 L 210.8 209.7 L 210.8 209.1 L 210.8 208.7 L 210.8 207.0 L 210.8 204.7 L 210.9 203.8 L 210.9 202.5 L 216.9 202.3 L 217.7 202.1 L 217.8 202.0 L 217.9 201.8 L 233.3 201.7 L 238.8 201.6 L 240.1 201.5 L 241.7 201.2 L 241.7 200.1 L 241.7 199.6 L 241.7 199.3 L 241.7 198.6 L 241.8 197.9 L 241.8 197.6 L 241.8 197.5 L 241.9 197.4 L 241.9 197.3 L 244.9 197.3 L 246.2 196.0 L 246.2 193.8 L 246.2 193.4 L 246.3 192.0 L 246.3 191.5 L 246.3 191.5 L 246.3 191.4 L 246.3 190.1 L 246.3 190.0 L 246.3 190.0 L 246.4 189.5 L 246.4 189.1 L 246.4 189.0 L 246.4 188.6 L 246.5 188.5 L 246.5 188.5 L 246.5 188.2 L 246.5 188.0 L 246.5 187.9 L 246.6 187.8 L 246.6 187.8 L 246.6 187.7 L 246.6 187.6 L 246.6 187.5 L 246.7 187.5 L 246.7 187.5 L 246.7 187.4 L 246.7 187.3 L 246.7 187.3 L 246.8 187.3 L 246.8 187.3 L 246.8 187.2 L 246.9 187.0 L 249.6 187.0 L 252.9 187.0 L 258.7 186.8 L 260.6 186.7 L 260.6 184.3 L 260.7 183.7 L 260.9 183.4 L 262.6 183.2 L 262.7 182.1 L 262.8 181.9 L 262.9 180.5 L 263.0 180.2 L 263.0 180.1 L 263.0 180.0 L 269.6 179.4 L 269.9 179.1 L 270.0 178.6 L 270.2 178.5 L 271.0 177.8 L 271.1 177.6 L 271.1 177.5 L 271.1 176.0 L 271.2 175.4 L 271.2 175.2 L 271.2 175.1 L 271.2 174.6 L 271.2 174.3 L 271.2 174.1 L 271.2 173.9 L 271.2 173.1 L 271.2 172.9 L 271.3 172.2 L 271.4 171.9 L 271.4 171.8 L 271.4 171.8 L 271.4 171.1 L 271.4 171.1 L 271.4 171.0 L 271.5 171.0 L 271.5 170.8 L 271.5 170.6 L 271.6 169.7 L 271.6 169.1 L 271.6 168.9 L 271.8 168.9 L 271.9 168.9 L 274.3 168.5 L 280.6 167.4 L 284.2 167.4 L 288.4 167.2 L 316.9 166.6 L 317.0 166.5 L 318.0 166.0 L 331.3 165.9 L 346.7 165.3 L 346.7 165.0 L 352.6 164.9 L 358.7 164.7 L 358.7 164.6 L 361.5 163.3 L 361.5 163.0 L 361.8 162.8 L 361.9 162.7 L 362.0 162.4 L 363.8 162.3 L 363.8 161.8 L 363.9 161.5 L 363.9 161.3 L 364.1 161.2 L 364.1 160.6 L 364.1 160.5 L 364.3 160.4 L 364.4 160.2 L 366.4 159.5 L 366.4 159.0 L 367.5 158.6 L 367.5 158.4 L 385.5 158.3 L 557.6 158.2 L 557.6 156.2 L 558.6 155.8 L 558.8 155.7 L 558.8 155.7 L 560.2 155.4 L 560.3 155.4 L 566.1 155.4 L 566.3 155.4 L 566.3 152.7 L 566.4 152.7 L 568.3 151.2 L 568.3 150.9 L 568.4 150.7 L 568.4 150.7 L 568.8 149.2 L 572.7 149.0 L 572.7 148.5 L 572.7 146.9 L 572.8 146.3 L 572.9 143.3 L 573.1 142.1 L 573.1 140.9 L 573.2 139.8 L 573.2 138.6 L 573.2 137.4 L 573.2 136.3 L 573.3 135.3 L 573.3 134.3 L 573.3 133.2 L 573.3 132.2 L 573.3 131.2 L 573.3 130.2 L 573.3 129.1 L 573.3 128.1 L 573.3 127.1 L 573.3 126.0 L 574.7 125.8 L 574.9 125.3 L 575.0 125.2 L 575.0 125.1 L 576.7 125.0 L 579.6 124.6 L 580.6 124.3 L 585.3 124.0 L 585.3 123.8 L 585.4 123.3 L 585.5 122.4 L 587.3 121.7 L 587.6 121.6 L 593.0 121.5 L 630.7 121.0 L 631.8 120.7 L 631.8 120.3 L 631.8 120.0 L 631.8 119.7 L 631.8 119.3 L 635.0 119.0 L 637.5 113.8 L 637.5 110.9 L 641.6 110.6 L 677.1 110.5 L 677.2 110.3 L 678.0 105.8 L 678.1 105.6 L 678.1 105.2 L 678.1 105.1 L 678.2 105.0 L 678.5 105.0 L 678.8 104.8 L 682.2 104.7 L 683.2 104.6 L 687.2 104.4 L 687.2 104.2 L 692.4 103.9 L 698.5 103.7 L 698.6 103.6 L 702.1 102.9 L 702.4 102.7 L 702.4 102.5 L 702.6 102.4 L 702.7 102.2 L 702.9 102.1 L 703.5 102.0 L 703.5 101.9 L 712.9 101.7 L 713.0 101.2 L 714.7 101.1 L 715.4 100.8 L 716.7 100.6 L 716.8 100.5 L 720.4 98.8 L 722.9 98.4 L 726.7 98.4 L 728.7 98.3 L 729.8 97.8 L 734.9 96.1 L 734.9 92.3 L 736.3 92.3 L 737.2 92.2 L 740.0 92.0 L 740.0 92.0" fill="none" stroke="#2a78d6" stroke-width="2" stroke-linejoin="round"/>
<circle cx="740.0" cy="92.0" r="4" fill="#2a78d6"/>
<text x="750.0" y="97.0" font-size="14" fill="#0b0b0b" text-anchor="start" font-weight="600" font-family="system-ui, -apple-system, sans-serif">448,007</text>
</svg>